<svg xmlns="http://www.w3.org/2000/svg" x="0px" y="0px"
     viewBox="0 0 172 172"
     style=" fill:#000000;"><g fill="none" fill-rule="nonzero" stroke="none" stroke-width="1" stroke-linecap="butt" stroke-linejoin="miter" stroke-miterlimit="10" stroke-dasharray="" stroke-dashoffset="0" font-family="none" font-weight="none" font-size="none" text-anchor="none" style="mix-blend-mode: normal"><path d="M0,172v-172h172v172z" fill="none"></path><g><g id="surface1"><path d="M158.5625,83.3125c0,41.56177 -33.68823,75.25 -75.25,75.25c-41.56177,0 -75.25,-33.68823 -75.25,-75.25c0,-41.56177 33.68823,-75.25 75.25,-75.25c41.56177,0 75.25,33.68823 75.25,75.25z" fill="#85cbf8"></path><path d="M83.3125,8.0625c-41.56177,0 -75.25,33.68823 -75.25,75.25c0,41.56177 33.68823,75.25 75.25,75.25c41.56177,0 75.25,-33.68823 75.25,-75.25c0,-41.56177 -33.68823,-75.25 -75.25,-75.25zM83.3125,142.4375c-26.58105,0 -49.89722,-17.7312 -56.9939,-43.35693c-7.08618,-25.61523 3.78979,-52.81567 26.59155,-66.48413c22.80176,-13.66846 51.92334,-10.43506 71.17676,7.90503l1.82666,1.79516c0.69287,0.72437 1.36474,1.45923 2.01563,2.20459c15.20117,17.47925 18.802,42.23364 9.19629,63.32422c-9.60571,21.08008 -30.6438,34.61206 -53.81299,34.61206z" fill="#c2cde7"></path><path d="M83.3125,142.4375c-32.64892,0 -59.125,-26.47607 -59.125,-59.125h-4.46167c-3.19141,-0.0105 -6.22534,1.39624 -8.27246,3.84229c-2.04712,2.44604 -2.90796,5.67944 -2.34107,8.81836c6.14136,36.17627 37.48853,62.65234 74.1897,62.65234c36.70117,0 68.03784,-26.47608 74.1897,-62.65234c0.5564,-3.13892 -0.29395,-6.36182 -2.34107,-8.80786c-2.03662,-2.44604 -5.06006,-3.85278 -8.25147,-3.85278h-4.46167c0,32.64893 -26.47607,59.125 -59.125,59.125z" fill="#acb7d0"></path><path d="M83.3125,5.375c-43.04199,0 -77.9375,34.89551 -77.9375,77.9375c0,43.04199 34.89551,77.9375 77.9375,77.9375c43.04199,0 77.9375,-34.89551 77.9375,-77.9375c0,-43.04199 -34.89551,-77.9375 -77.9375,-77.9375zM83.3125,155.875c-40.07104,0 -72.5625,-32.49146 -72.5625,-72.5625c0,-40.07104 32.49146,-72.5625 72.5625,-72.5625c40.07104,0 72.5625,32.49146 72.5625,72.5625c0,40.07104 -32.49146,72.5625 -72.5625,72.5625z" fill="#8d6c9f"></path><path d="M83.3125,134.375c-1.48022,0 -2.6875,1.20728 -2.6875,2.6875v5.375c0,1.48022 1.20728,2.6875 2.6875,2.6875c1.48022,0 2.6875,-1.20728 2.6875,-2.6875v-5.375c0,-1.48022 -1.20728,-2.6875 -2.6875,-2.6875z" fill="#8d6c9f"></path><path d="M99.4375,134.58496c-0.41992,-1.37524 -1.86865,-2.18359 -3.26489,-1.80566c-1.40674,0.37793 -2.24658,1.79517 -1.92114,3.2124l1.39624,5.18603c0.39892,1.43823 1.87915,2.28858 3.31738,1.88965c1.43823,-0.38843 2.28857,-1.87915 1.90015,-3.31738z" fill="#8d6c9f"></path><path d="M58.45313,127.70874c-0.61939,-0.35693 -1.35425,-0.45141 -2.04712,-0.27295c-0.69287,0.18896 -1.28076,0.65088 -1.6377,1.27026l-2.6875,4.65064c-0.5249,0.82935 -0.5564,1.88965 -0.07348,2.75049c0.48291,0.86084 1.39624,1.38574 2.38305,1.37524c0.98682,-0.0105 1.88965,-0.56689 2.34107,-1.43823l2.6875,-4.65064c0.36743,-0.61939 0.46191,-1.35425 0.28345,-2.04712c-0.17847,-0.68237 -0.62988,-1.28076 -1.24927,-1.6377z" fill="#8d6c9f"></path><path d="M111.85669,128.70605c-0.46191,-0.87134 -1.36475,-1.42773 -2.35156,-1.43823c-0.98682,-0.021 -1.90015,0.5144 -2.38306,1.37524c-0.47241,0.86084 -0.45142,1.91064 0.08398,2.75049l2.6875,4.65064c0.45142,0.87134 1.35425,1.42773 2.34107,1.43823c0.98682,0.0105 1.90015,-0.5144 2.38306,-1.37524c0.48291,-0.86084 0.45141,-1.92114 -0.07349,-2.75049z" fill="#8d6c9f"></path><path d="M70.4419,132.68482c-1.43823,-0.37793 -2.89746,0.47241 -3.28589,1.90015l-1.39624,5.16504c-0.28345,0.93433 -0.04199,1.96314 0.65088,2.66651c0.68237,0.70337 1.70068,0.97632 2.64551,0.71387c0.94482,-0.26245 1.66919,-1.02881 1.88965,-1.98413l1.40674,-5.18603c0.36743,-1.42773 -0.48291,-2.89746 -1.91064,-3.27539z" fill="#8d6c9f"></path><path d="M115.5625,80.625h-29.5625v-29.5625c0,-1.48022 -1.20728,-2.6875 -2.6875,-2.6875c-1.48022,0 -2.6875,1.20728 -2.6875,2.6875v29.5625h-29.5625c-1.48022,0 -2.6875,1.20728 -2.6875,2.6875c0,1.48022 1.20728,2.6875 2.6875,2.6875h29.5625v29.5625c0,1.48022 1.20728,2.6875 2.6875,2.6875c1.48022,0 2.6875,-1.20728 2.6875,-2.6875v-29.5625h29.5625c1.48022,0 2.6875,-1.20728 2.6875,-2.6875c0,-1.48022 -1.20728,-2.6875 -2.6875,-2.6875z" fill="#ffffff"></path><path d="M103.06983,30.42334c1.92114,0.72436 3.80029,1.54321 5.63745,2.46704c1.33325,0.67188 2.94995,0.13648 3.62183,-1.18628c0.66138,-1.33325 0.12598,-2.94995 -1.19678,-3.62183c-2.01562,-1.00781 -4.07324,-1.90015 -6.18335,-2.6875c-0.91333,-0.39893 -1.97363,-0.26245 -2.75049,0.35693c-0.78735,0.61939 -1.16528,1.6167 -0.97632,2.59302c0.17847,0.98682 0.89233,1.78467 1.84766,2.07861z" fill="#8d6c9f"></path><path d="M43.39893,43.39893c12.83911,-12.77613 31.00073,-18.64453 48.8894,-15.79956c1.48022,0.24146 2.87646,-0.77685 3.11792,-2.25708c0.24146,-1.48023 -0.77685,-2.87647 -2.25708,-3.11792c-26.49707,-4.3042 -52.75268,8.98633 -64.97241,32.90088c-12.20923,23.90405 -7.59009,52.96265 11.43237,71.91162c1.0708,0.91333 2.65601,0.85034 3.65332,-0.13647c0.99732,-0.99732 1.0498,-2.58252 0.13648,-3.65332c-22.0564,-22.0459 -22.0564,-57.80224 0,-79.84814z" fill="#8d6c9f"></path><path d="M127.01587,39.60913c-1.77417,-1.77417 -3.65332,-3.44336 -5.61646,-4.99707c-1.17578,-0.77685 -2.75049,-0.5249 -3.61133,0.57739c-0.87134,1.11279 -0.73486,2.698 0.30444,3.64282c1.79517,1.41724 3.50635,2.94995 5.13355,4.56665c22.0354,22.0459 22.0354,57.78125 0,79.82715c-0.76636,0.65088 -1.1023,1.67969 -0.87134,2.6665c0.24146,0.97632 1.00781,1.74268 1.98413,1.98413c0.98682,0.23096 2.01563,-0.09448 2.677,-0.86084c24.12451,-24.14551 24.12451,-63.26123 0,-87.40674z" fill="#8d6c9f"></path></g></g></g></svg>
