<svg xmlns="http://www.w3.org/2000/svg" x="0px" y="0px" viewBox="0 0 192 192" style=" fill:#000000;">
    <filter id="dropshadow" height="130%">
        <feGaussianBlur in="SourceAlpha" stdDeviation="3"/> <!-- stdDeviation is how much to blur -->
        <feOffset dx="2" dy="2" result="offsetblur"/> <!-- how much to offset -->
        <feComponentTransfer>
            <feFuncA type="linear" slope="0.5"/> <!-- slope is the opacity of the shadow -->
        </feComponentTransfer>
        <feMerge>
            <feMergeNode/> <!-- this contains the offset blurred image -->
            <feMergeNode in="SourceGraphic"/> <!-- this contains the element that the filter is applied to -->
        </feMerge>
    </filter>
    <g style="filter:url(#dropshadow)" fill="none" fill-rule="nonzero" stroke="none" stroke-width="1" stroke-linecap="butt" stroke-linejoin="miter" stroke-miterlimit="10" stroke-dasharray="" stroke-dashoffset="0" font-family="none" font-weight="none" font-size="none" text-anchor="none">
        <path d="M0,192v-192h192v192z" fill="none"></path>
        <g>
            <g id="surface1">
                <path d="M168,45h-153l24,-24h108z" fill="#cda1a7"></path>
                <path d="M18,45h150c1.65234,0 3,1.34766 3,3v120c0,1.65234 -1.34766,3 -3,3h-150c-1.65234,0 -3,-1.34766 -3,-3v-120c0,-1.65234 1.34766,-3 3,-3z" fill="#efd8be"></path>
                <path d="M27,156h132c6.63281,0 12,5.36719 12,12v3h-156v-3c0,-6.63281 5.36719,-12 12,-12z" fill="#cda1a7"></path>
                <path d="M48,150.17578c-1.65234,0 -3,1.34766 -3,3v6c0,1.66406 1.34766,3 3,3c1.65234,0 3,-1.33594 3,-3v-6c0,-1.65234 -1.34766,-3 -3,-3z" fill="#009688"></path>
                <path d="M33,150.17578c-1.65234,0 -3,1.34766 -3,3v6c0,1.66406 1.34766,3 3,3c1.65234,0 3,-1.33594 3,-3v-6c0,-1.65234 -1.34766,-3 -3,-3z" fill="#009688"></path>
                <path d="M63,150.17578c-1.65234,0 -3,1.34766 -3,3v6c0,1.66406 1.34766,3 3,3c1.65234,0 3,-1.33594 3,-3v-6c0,-1.65234 -1.34766,-3 -3,-3z" fill="#009688"></path>
                <path d="M78,150.17578c-1.65234,0 -3,1.34766 -3,3v6c0,1.66406 1.34766,3 3,3c1.65234,0 3,-1.33594 3,-3v-6c0,-1.65234 -1.34766,-3 -3,-3z" fill="#009688"></path>
                <path d="M93,150.17578c-1.65234,0 -3,1.34766 -3,3v6c0,1.66406 1.34766,3 3,3c1.65234,0 3,-1.33594 3,-3v-6c0,-1.65234 -1.34766,-3 -3,-3z" fill="#009688"></path>
                <path d="M108,150.17578c-1.65234,0 -3,1.34766 -3,3v6c0,1.66406 1.34766,3 3,3c1.65234,0 3,-1.33594 3,-3v-6c0,-1.65234 -1.34766,-3 -3,-3z" fill="#009688"></path>
                <path d="M123,150.17578c-1.65234,0 -3,1.34766 -3,3v6c0,1.66406 1.34766,3 3,3c1.65234,0 3,-1.33594 3,-3v-6c0,-1.65234 -1.34766,-3 -3,-3z" fill="#009688"></path>
                <path d="M138,150.17578c-1.65234,0 -3,1.34766 -3,3v6c0,1.66406 1.34766,3 3,3c1.65234,0 3,-1.33594 3,-3v-6c0,-1.65234 -1.34766,-3 -3,-3z" fill="#009688"></path>
                <path d="M153,150.17578c-1.65234,0 -3,1.34766 -3,3v6c0,1.66406 1.34766,3 3,3c1.65234,0 3,-1.33594 3,-3v-6c0,-1.65234 -1.34766,-3 -3,-3z" fill="#009688"></path>
                <path d="M169.61719,39.36328l-16.98047,-16.98047c-2.8125,-2.8125 -6.63281,-4.39453 -10.61719,-4.38281h-98.03906c-3.98437,-0.01172 -7.80469,1.57031 -10.61719,4.38281l-16.98047,16.98047c-2.8125,2.8125 -4.39453,6.63281 -4.38281,10.61719v115.01953c0,4.96875 4.03125,9 9,9h144c4.96875,0 9,-4.03125 9,-9v-115.01953c0.01172,-3.98437 -1.57031,-7.80469 -4.38281,-10.61719zM163.94531,42.17578h-19.94531v-18c1.65234,0.375 3.17578,1.20703 4.38281,2.40234zM48,24h90v18.17578h-90zM37.61719,26.63672c1.20703,-1.19531 2.73047,-2.02734 4.38281,-2.40234v18h-19.92187zM168,165c0,1.65234 -1.34766,3 -3,3h-144c-1.65234,0 -3,-1.34766 -3,-3v-115.01953c0,-0.60937 0.05859,-1.20703 0.17578,-1.80469h149.64844c0.11719,0.59766 0.17578,1.19531 0.17578,1.80469z" fill="#009688"></path>
                <path d="M123,126h-60c-1.65234,0 -3,1.34766 -3,3c0,1.65234 1.34766,3 3,3h60c1.65234,0 3,-1.34766 3,-3c0,-1.65234 -1.34766,-3 -3,-3z" fill="#009688"></path>
                <path d="M81,66h24c1.65234,0 3,-1.34766 3,-3c0,-1.65234 -1.34766,-3 -3,-3h-24c-1.65234,0 -3,1.34766 -3,3c0,1.65234 1.34766,3 3,3z" fill="#009688"></path>
                <path d="M68.13281,98.13281l3.86719,-3.90235v22.76953c0,1.65234 1.34766,3 3,3c1.65234,0 3,-1.34766 3,-3v-22.76953l3.86719,3.86719c1.19531,1.01953 2.96484,0.94922 4.07813,-0.15234c1.10156,-1.11328 1.17188,-2.88281 0.15234,-4.07812l-9,-9c-1.17187,-1.16016 -3.05859,-1.16016 -4.23047,0l-9,9c-1.01953,1.19531 -0.94922,2.96484 0.16406,4.07813c1.10156,1.10156 2.88281,1.17188 4.06641,0.15234z" fill="#009688"></path>
                <path d="M99.86719,98.13281c1.17188,1.16015 3.05859,1.16015 4.23047,0l3.90234,-3.90235v22.76953c0,1.65234 1.34766,3 3,3c1.65234,0 3,-1.34766 3,-3v-22.76953l3.86719,3.86719c1.19531,1.01953 2.96484,0.94922 4.07813,-0.15234c1.10156,-1.11328 1.17188,-2.88281 0.15234,-4.07812l-9,-9c-1.17187,-1.16016 -3.05859,-1.16016 -4.23047,0l-9,9c-0.5625,0.5625 -0.87891,1.33594 -0.87891,2.13281c0,0.79688 0.31641,1.57031 0.87891,2.13281z" fill="#009688"></path>
            </g>
        </g>
    </g>
</svg>
